<svg width="20" height="20" viewBox="0 0 20 20" fill="none" xmlns="http://www.w3.org/2000/svg">
<path d="M9.41698 17.6327C7.19429 17.6327 4.9716 17.6329 2.74869 17.6325C2.51493 17.6325 2.28348 17.6122 2.06726 17.5139C1.81088 17.3977 1.66905 17.2127 1.66969 16.9143C1.67412 14.5893 1.67793 12.2645 1.66799 9.93954C1.66567 9.41789 1.82102 8.95712 2.08205 8.52087C2.30081 8.15542 2.59038 7.84726 2.88629 7.54459C4.04223 6.36265 5.37466 5.42208 6.83476 4.65547C7.72882 4.18624 8.65734 3.79882 9.61481 3.48093C10.686 3.1252 11.7809 2.86396 12.8945 2.68113C13.5825 2.56847 14.2743 2.48752 14.9691 2.43341C15.8718 2.36303 16.7768 2.34971 17.6819 2.36831C18.0934 2.37677 18.3766 2.7327 18.3295 3.14317C18.2741 3.62529 18.2338 4.1091 18.1862 4.59206C18.1403 5.05769 18.0926 5.52311 18.0473 5.98874C18.0011 6.46495 17.9573 6.94115 17.9112 7.41735C17.8671 7.876 17.8216 8.33466 17.7764 8.79332C17.7375 9.18878 17.698 9.58424 17.6591 9.97991C17.6117 10.4595 17.5646 10.9391 17.5177 11.4187C17.4729 11.8773 17.4289 12.336 17.3839 12.7944C17.3376 13.267 17.29 13.7394 17.2435 14.212C17.2053 14.6005 17.17 14.9894 17.1298 15.3779C17.0753 15.9061 17.044 16.4375 16.9605 16.9619C16.8903 17.4021 16.5938 17.6331 16.1487 17.6329C13.9048 17.6325 11.6608 17.6327 9.41698 17.6327ZM4.04857 9.87C4.07415 9.9036 4.11093 9.90382 4.14305 9.91058C4.41212 9.96849 4.68139 10.0013 4.95934 9.98075C5.55179 9.937 6.04215 9.69478 6.43571 9.25472C6.49151 9.19237 6.54836 9.17208 6.62783 9.17208C8.86426 9.17335 11.1009 9.17314 13.3373 9.17292C14.4115 9.17292 15.4858 9.17166 16.56 9.17483C16.6636 9.17504 16.6984 9.14672 16.7039 9.03955C16.717 8.79036 16.7475 8.54222 16.7699 8.29344C16.8102 7.84853 16.8502 7.40382 16.8897 6.9589C16.9212 6.60508 16.9523 6.25105 16.9825 5.89723C17.0222 5.43476 17.0624 4.9723 17.0996 4.50963C17.1264 4.17652 17.1457 3.84278 17.1748 3.51009C17.1898 3.34016 17.1856 3.32832 17.0148 3.326C16.4196 3.31754 15.8259 3.33847 15.232 3.38285C14.6808 3.42407 14.1321 3.48389 13.5859 3.56526C12.7605 3.68806 11.9436 3.85462 11.1364 4.06809C9.91051 4.39232 8.72392 4.82075 7.58932 5.38847C6.68258 5.84227 5.82888 6.3804 5.0386 7.01681C4.87416 7.14934 4.71542 7.28905 4.55711 7.42876C4.46179 7.51288 4.46475 7.51521 4.56853 7.57862C4.61355 7.60609 4.65878 7.63357 4.70105 7.66527C5.17239 8.01804 5.39897 8.49825 5.43998 9.07718C5.44737 9.18201 5.39707 9.24923 5.32669 9.31306C5.07897 9.53816 4.78982 9.68569 4.46897 9.77256C4.33159 9.80955 4.19103 9.83724 4.04857 9.87ZM9.40049 16.526C9.40049 16.5262 9.40049 16.5262 9.40049 16.5264C11.5627 16.5264 13.725 16.5264 15.8872 16.526C15.9327 16.526 15.9796 16.5264 16.0235 16.5163C16.1208 16.4941 16.1956 16.4085 16.189 16.3364C16.181 16.2491 16.1064 16.1957 15.9872 16.1933C15.9132 16.1919 15.8392 16.1925 15.7653 16.1925C14.5468 16.1925 13.3285 16.1929 12.11 16.1929C9.05322 16.1929 5.99649 16.1927 2.93998 16.1927C2.89432 16.1927 2.84803 16.1912 2.8028 16.1963C2.71466 16.206 2.66055 16.2559 2.65231 16.3455C2.64407 16.437 2.6948 16.4933 2.77786 16.5163C2.82077 16.5283 2.86854 16.5258 2.91398 16.5258C5.07601 16.5262 7.23825 16.526 9.40049 16.526ZM14.7687 10.5527C14.7687 10.5525 14.7687 10.5525 14.7687 10.5523C14.4451 10.5523 14.1213 10.5512 13.7977 10.5525C13.5544 10.5535 13.3779 10.7161 13.372 10.9416C13.3663 11.1568 13.5396 11.3407 13.7778 11.343C14.4322 11.3493 15.0866 11.3491 15.7407 11.3428C15.987 11.3404 16.1544 11.1608 16.148 10.9353C16.1419 10.7123 15.9639 10.5531 15.7183 10.5527C15.4019 10.5523 15.0853 10.5527 14.7687 10.5527Z" fill="#959595"/>
</svg>
