<svg width="20" height="20" viewBox="0 0 20 20" fill="none" xmlns="http://www.w3.org/2000/svg">
<path d="M9.76982 3.33337C9.92414 3.33337 10.0785 3.33337 10.2328 3.33337C10.2755 3.34184 10.3181 3.35045 10.3609 3.35845C11.376 3.54877 12.0703 4.50792 11.9126 5.52722C11.8025 6.23865 11.3959 6.73499 10.7363 7.0244C10.6746 7.05147 10.6528 7.08409 10.653 7.1501C10.6549 7.97046 10.6542 8.79082 10.6544 9.61103C10.6544 9.71104 10.6569 9.71335 10.7598 9.71335C12.0095 9.71335 13.259 9.71304 14.5087 9.71381C14.5863 9.71381 14.6626 9.70504 14.738 9.68996C15.347 9.56811 15.7599 9.02838 15.7564 8.46542C15.7536 8.03477 15.7539 7.60413 15.7584 7.17348C15.7593 7.08825 15.7309 7.04686 15.6525 7.01424C14.9388 6.71714 14.419 5.97263 14.4854 5.11965C14.5331 4.50592 14.8136 4.02404 15.3126 3.66694C15.5748 3.47923 15.8721 3.37892 16.1896 3.33337C16.3388 3.33337 16.4879 3.33337 16.6371 3.33337C16.647 3.33614 16.6565 3.3403 16.6666 3.34168C17.1979 3.41738 17.6269 3.66817 17.9541 4.09143C18.1675 4.36744 18.2846 4.68331 18.3346 5.0258C18.3346 5.17965 18.3346 5.33351 18.3346 5.48737C18.332 5.49721 18.3285 5.50691 18.3268 5.51706C18.2044 6.24019 17.8016 6.7433 17.128 7.03209C17.0729 7.05563 17.0586 7.08917 17.0589 7.1441C17.0606 7.46966 17.0618 7.79537 17.0589 8.12093C17.057 8.3231 17.0689 8.52542 17.0461 8.72774C16.9817 9.29778 16.753 9.79305 16.3582 10.2071C15.8468 10.7434 15.2126 11.0116 14.4715 11.0144C13.2423 11.0188 12.0132 11.0156 10.784 11.0156C10.6545 11.0156 10.6545 11.0157 10.6545 11.1479C10.6545 11.9478 10.6561 12.7477 10.6525 13.5476C10.6521 13.6381 10.6797 13.6809 10.7646 13.717C11.5468 14.049 12.0192 14.8534 11.9218 15.6756C11.8393 16.373 11.4777 16.8798 10.8567 17.2051C10.6565 17.3099 10.4399 17.3628 10.2177 17.3959C10.0737 17.3959 9.92954 17.3959 9.78556 17.3959C9.74266 17.388 9.69991 17.38 9.65701 17.3725C8.63988 17.1937 7.92862 16.2206 8.08818 15.2083C8.19976 14.5004 8.59775 14.0016 9.25377 13.7109C9.32723 13.6782 9.35053 13.6402 9.35022 13.5621C9.34744 12.7543 9.34852 11.9466 9.34852 11.1388C9.34852 11.0157 9.34837 11.0156 9.22522 11.0156C7.60747 11.0156 5.98973 11.0156 4.37183 11.0156C4.24621 11.0156 4.2459 11.0157 4.2459 11.1379C4.24575 11.943 4.24698 12.7483 4.24405 13.5535C4.24374 13.6372 4.26859 13.6799 4.34791 13.7142C5.14173 14.0572 5.60547 14.8309 5.51149 15.6847C5.44173 16.3181 5.1192 16.8026 4.57368 17.1366C4.34004 17.2797 4.08217 17.3546 3.81318 17.3959C3.66396 17.3959 3.51488 17.3959 3.36565 17.3959C3.35331 17.3928 3.34112 17.3885 3.32862 17.3866C2.80084 17.3086 2.37383 17.0591 2.04868 16.6378C1.83541 16.3618 1.7172 16.0464 1.66797 15.7035C1.66797 15.5496 1.66797 15.3957 1.66797 15.2419C1.67106 15.2294 1.67491 15.2173 1.67707 15.2046C1.79991 14.4881 2.19991 13.9884 2.86643 13.7004C2.93217 13.6721 2.94405 13.6332 2.94389 13.5707C2.94281 11.4333 2.94266 9.29578 2.94467 7.1584C2.94467 7.08455 2.91951 7.05086 2.85223 7.02301C2.44744 6.855 2.13371 6.58098 1.91195 6.20311C1.7817 5.98109 1.70886 5.73969 1.66797 5.48737C1.66797 5.33351 1.66797 5.17965 1.66797 5.0258C1.67136 5.00826 1.67522 4.99087 1.67815 4.97333C1.77244 4.39283 2.06612 3.94142 2.56087 3.62109C2.80624 3.46215 3.07846 3.37707 3.3655 3.33337C3.51473 3.33337 3.6638 3.33337 3.81303 3.33337C3.8584 3.34168 3.90362 3.34999 3.94899 3.35845C4.92769 3.54062 5.63494 4.44668 5.50886 5.47229C5.4192 6.20188 5.01426 6.71653 4.34143 7.01701C4.26828 7.04963 4.24343 7.0884 4.24374 7.16625C4.24621 7.97631 4.24513 8.78636 4.24528 9.59642C4.24528 9.71166 4.24744 9.7135 4.36102 9.7135C5.98602 9.7135 7.61102 9.7135 9.23602 9.7135C9.34775 9.7135 9.34821 9.71319 9.34821 9.60242C9.34837 8.79236 9.34698 7.98231 9.35022 7.17225C9.35053 7.08671 9.32213 7.04717 9.24405 7.01455C8.46118 6.68776 7.98818 5.89063 8.08139 5.05241C8.15408 4.39806 8.48571 3.90818 9.05099 3.57354C9.27275 3.4423 9.51704 3.37415 9.76982 3.33337Z" fill="#959595"/>
</svg>
